<svg width="20" height="20" viewBox="0 0 20 20" fill="none" xmlns="http://www.w3.org/2000/svg">
<g id="akar-icons:linkedin-box-fill" clip-path="url(#clip0_117_924)">
<path id="Vector" fill-rule="evenodd" clip-rule="evenodd" d="M0.833313 2.36516C0.833313 1.95894 0.994685 1.56936 1.28193 1.28211C1.56917 0.99487 1.95876 0.833498 2.36498 0.833498H17.6333C17.8346 0.833169 18.034 0.872551 18.2201 0.949387C18.4062 1.02622 18.5753 1.13901 18.7177 1.28128C18.8601 1.42355 18.9731 1.59252 19.0501 1.77851C19.1272 1.9645 19.1668 2.16385 19.1666 2.36516V17.6335C19.1669 17.8349 19.1274 18.0343 19.0505 18.2203C18.9735 18.4064 18.8607 18.5755 18.7183 18.7179C18.576 18.8603 18.407 18.9733 18.2209 19.0503C18.0349 19.1273 17.8355 19.1669 17.6341 19.1668H2.36498C2.16377 19.1668 1.96453 19.1272 1.77864 19.0502C1.59276 18.9731 1.42387 18.8602 1.28163 18.7179C1.13939 18.5756 1.02659 18.4067 0.949665 18.2207C0.872741 18.0348 0.833204 17.8355 0.833313 17.6343V2.36516ZM8.08998 7.8235H10.5725V9.07017C10.9308 8.3535 11.8475 7.7085 13.225 7.7085C15.8658 7.7085 16.4916 9.136 16.4916 11.7552V16.6068H13.8191V12.3518C13.8191 10.8602 13.4608 10.0185 12.5508 10.0185C11.2883 10.0185 10.7633 10.926 10.7633 12.3518V16.6068H8.08998V7.8235ZM3.50665 16.4927H6.17998V7.7085H3.50665V16.4918V16.4927ZM6.56248 4.8435C6.56752 5.07239 6.52679 5.29999 6.44268 5.51293C6.35857 5.72587 6.23277 5.91986 6.07267 6.08353C5.91257 6.24719 5.7214 6.37723 5.51036 6.466C5.29932 6.55478 5.07268 6.60051 4.84373 6.60051C4.61478 6.60051 4.38814 6.55478 4.1771 6.466C3.96606 6.37723 3.77489 6.24719 3.61479 6.08353C3.45469 5.91986 3.32889 5.72587 3.24478 5.51293C3.16067 5.29999 3.11994 5.07239 3.12498 4.8435C3.13487 4.39421 3.3203 3.96666 3.64155 3.6524C3.9628 3.33815 4.39433 3.16218 4.84373 3.16218C5.29313 3.16218 5.72466 3.33815 6.04591 3.6524C6.36716 3.96666 6.55259 4.39421 6.56248 4.8435Z" fill="black"/>
</g>
<defs>
<clipPath id="clip0_117_924">
<rect width="20" height="20" fill="white"/>
</clipPath>
</defs>
</svg>
